# xmcd
#
# Track frame offsets: 
#        150
#        18013
#        31507
#
# Disc length: 1044 seconds
#
# Revision: 0
# Processed by: cddbd v1.5.2PL0 Copyright (c) Steve Scherf et al.
# Submitted via: ExactAudioCopy v0.99pb4
#
DISCID=0e041203
DTITLE=Busta Rhymes - We Made It
DYEAR=2008
DGENRE=Hip-Hop
TTITLE0=We Made It
TTITLE1=We Made It (Acapella)
TTITLE2=We Made It (Instrumental)
EXTD=
EXTT0=
EXTT1=
EXTT2=
PLAYORDER=
